<?xml version="1.0" standalone="no"?>
<!DOCTYPE svg PUBLIC "-//W3C//DTD SVG 20010904//EN"
 "http://www.w3.org/TR/2001/REC-SVG-20010904/DTD/svg10.dtd">
<svg version="1.0" xmlns="http://www.w3.org/2000/svg"
 width="1280.000000pt" height="640.000000pt" viewBox="0 0 1280.000000 640.000000"
 preserveAspectRatio="xMidYMid meet">
<metadata>
Created by potrace 1.15, written by Peter Selinger 2001-2017
</metadata>
<g transform="translate(0.000000,640.000000) scale(0.100000,-0.100000)"
fill="#000000" stroke="none">
<path d="M94 6267 c36 -52 41 -65 41 -115 0 -49 -6 -68 -41 -128 -100 -172
-117 -312 -63 -516 9 -35 12 -37 102 -67 242 -79 401 -104 677 -105 214 -1
215 -1 263 -28 141 -79 244 -102 455 -102 89 1 162 0 162 -2 0 -2 -27 -100
-60 -219 -33 -118 -87 -313 -120 -432 -33 -120 -66 -229 -72 -242 -7 -13 -13
-29 -13 -35 -2 -27 -18 -87 -25 -91 -4 -3 -11 2 -14 11 -14 36 -24 -1 -20 -75
l5 -78 -70 -5 c-86 -6 -110 -21 -144 -90 -78 -160 -83 -211 -28 -296 22 -34
31 -61 31 -90 0 -37 -4 -44 -43 -70 -23 -16 -100 -54 -170 -85 -163 -70 -170
-75 -192 -134 -9 -26 -42 -103 -71 -170 -62 -142 -118 -300 -128 -359 -7 -37
-2 -53 49 -155 97 -194 146 -270 177 -276 35 -7 36 -24 8 -183 -32 -185 -36
-264 -15 -296 16 -25 21 -26 70 -21 l53 5 5 -441 c3 -305 10 -485 21 -582 8
-77 16 -177 16 -223 0 -80 1 -84 32 -112 29 -27 30 -30 16 -52 -8 -13 -18 -35
-21 -50 -5 -17 -23 -35 -54 -53 -88 -51 -105 -79 -57 -91 33 -8 196 18 285 45
l66 21 7 53 c4 28 14 62 22 75 9 14 13 34 10 50 -14 68 -26 623 -16 733 12
132 37 290 48 301 11 11 60 -248 67 -352 4 -47 2 -217 -4 -379 -11 -287 -11
-296 9 -333 12 -23 20 -58 20 -87 0 -59 16 -76 99 -102 78 -24 231 -43 243
-31 13 13 -1 37 -57 103 -43 50 -57 91 -36 104 26 15 51 456 52 889 0 431 8
557 34 586 16 18 18 33 12 168 -3 81 -11 199 -17 262 -6 63 -10 147 -8 185 l3
70 13 -80 c27 -160 33 -213 46 -389 13 -175 16 -187 50 -199 5 -2 2 -21 -6
-43 -11 -26 -15 -56 -11 -81 3 -23 0 -50 -7 -62 -10 -19 -9 -25 7 -37 31 -23
80 -28 107 -11 23 15 24 15 29 -11 3 -15 1 -155 -5 -311 -9 -264 -8 -296 11
-460 20 -162 20 -180 6 -214 -20 -49 -19 -83 5 -100 19 -13 19 -14 -4 -34 -13
-12 -27 -35 -31 -52 -10 -48 -60 -83 -148 -105 -50 -13 -82 -26 -88 -37 -8
-15 -1 -20 48 -34 88 -26 192 -22 245 8 68 39 86 42 90 15 3 -21 8 -23 62 -23
l60 0 28 49 c19 31 28 61 27 85 0 20 8 68 20 107 11 39 26 121 33 182 6 62 15
109 18 104 4 -4 17 -34 30 -67 28 -72 129 -267 144 -277 6 -4 22 -8 34 -8 l24
0 -27 -31 c-16 -20 -25 -41 -23 -57 3 -22 -6 -31 -62 -64 -36 -21 -77 -38 -91
-38 -31 0 -80 -47 -58 -55 85 -30 111 -35 201 -35 60 0 108 5 121 12 12 7 50
13 84 13 66 0 92 15 119 67 10 19 22 28 38 28 22 0 23 2 15 38 -10 48 2 135
23 156 9 8 19 43 22 78 6 54 2 84 -28 199 -45 174 -53 290 -46 719 6 381 -2
374 111 104 l71 -169 -6 -150 c-9 -228 9 -587 34 -669 11 -36 27 -72 35 -79
18 -19 33 -117 27 -179 -5 -54 -19 -49 122 -50 49 0 82 5 97 15 13 8 34 18 46
21 11 4 24 14 27 22 9 22 -17 75 -53 108 -31 30 -39 54 -22 71 25 26 35 134
38 433 l4 312 27 -7 c15 -4 52 -12 82 -18 45 -9 56 -15 62 -35 14 -53 98 -567
98 -605 0 -22 -7 -75 -15 -118 -18 -95 -19 -134 -2 -167 31 -61 111 4 143 118
9 31 19 60 23 64 3 4 22 3 41 -1 20 -4 46 -4 59 1 21 7 23 13 18 45 -4 20 -28
68 -54 106 l-48 70 1 81 c1 44 14 144 28 221 49 252 41 230 94 253 98 41 87
84 84 -349 -3 -344 -2 -382 13 -393 14 -10 10 -20 -45 -91 -49 -63 -60 -85
-58 -109 4 -36 23 -44 119 -45 51 -1 72 3 90 18 27 21 96 61 106 61 14 0 -38
-46 -115 -103 -45 -33 -81 -65 -79 -70 6 -19 55 -25 124 -16 91 11 255 48 269
60 6 5 14 31 17 59 3 27 15 62 25 77 11 16 23 50 26 77 3 26 16 89 28 140 l22
91 9 -85 c5 -47 12 -87 16 -90 4 -3 7 -32 7 -65 l-1 -60 55 -20 c30 -11 80
-35 110 -52 95 -56 208 -56 360 -2 47 17 100 34 119 39 56 14 63 28 63 126 1
87 -1 95 -74 289 -41 110 -108 274 -148 365 -123 279 -140 330 -133 388 8 73
39 120 102 157 30 18 61 45 69 60 21 42 41 188 49 358 3 81 10 147 15 147 4 0
8 -58 8 -129 0 -207 22 -331 112 -639 87 -300 161 -643 179 -837 7 -66 18
-127 24 -135 7 -8 15 -32 17 -52 3 -29 0 -38 -12 -38 -8 0 -22 -18 -31 -39
-24 -55 -65 -75 -159 -76 -41 0 -81 -4 -87 -8 -20 -13 -15 -54 10 -81 l22 -25
260 -2 c143 -2 275 0 293 5 24 6 34 15 38 34 13 58 13 59 54 60 42 2 46 -3 29
-40 -7 -17 -7 -32 1 -52 l11 -29 87 6 c104 6 120 12 128 44 4 13 17 29 31 34
22 8 24 15 24 66 -1 32 2 112 5 179 5 103 3 138 -19 250 -14 71 -28 162 -32
203 -8 88 16 884 26 874 22 -24 70 -426 90 -745 11 -171 10 -213 -4 -320 -23
-179 -28 -274 -16 -348 6 -36 10 -84 10 -108 -1 -44 6 -56 75 -112 16 -14 33
-34 37 -44 7 -18 17 -18 180 -12 173 7 246 18 259 40 4 6 8 23 8 37 0 15 9 38
20 52 19 23 22 50 33 269 17 339 15 504 -6 613 -23 119 -47 350 -47 452 0 92
-8 84 101 99 l47 6 -6 -219 -5 -220 44 -12 c24 -6 85 -19 134 -29 l90 -18 21
-144 c12 -80 33 -206 48 -281 21 -107 25 -144 18 -177 -16 -69 -59 -112 -166
-165 -100 -50 -111 -63 -82 -102 16 -22 68 -26 168 -12 57 7 57 7 60 -20 2
-23 9 -29 34 -31 38 -4 84 31 108 82 13 28 23 35 53 39 21 3 55 11 77 19 l38
13 -6 49 c-3 29 -1 55 5 62 6 8 14 120 19 276 5 145 12 302 15 350 l7 87 46
10 c26 5 47 9 48 8 1 -1 14 -39 28 -85 28 -89 68 -324 61 -357 -2 -11 -14 -65
-25 -120 -12 -55 -35 -146 -51 -201 -16 -56 -29 -105 -29 -108 0 -4 13 -14 30
-24 l30 -19 -24 -22 c-13 -12 -52 -41 -87 -64 -77 -50 -86 -73 -34 -83 37 -7
131 0 183 12 26 7 25 5 -15 -39 -24 -26 -43 -49 -43 -52 0 -45 93 -73 176 -55
75 17 129 44 153 79 12 17 27 31 33 31 5 0 23 9 39 21 28 19 47 21 299 26
l270 6 16 25 c10 16 14 36 11 57 -5 30 -3 33 32 43 69 21 73 29 55 96 -9 33
-13 74 -9 95 5 29 -10 77 -78 261 -47 124 -101 261 -122 305 -21 44 -37 91
-36 105 1 14 26 105 55 204 40 136 55 173 60 155 31 -108 51 -207 71 -354 12
-95 28 -183 35 -195 8 -14 10 -42 6 -74 -4 -32 -1 -71 9 -106 8 -30 15 -79 15
-108 0 -33 9 -76 25 -115 22 -54 25 -71 19 -129 -5 -54 -3 -73 10 -92 25 -39
20 -55 -40 -112 -48 -47 -55 -58 -52 -86 l3 -33 114 -3 c93 -2 117 0 131 13
11 10 31 15 51 13 32 -3 33 -2 44 47 l10 50 52 -3 c30 -2 66 3 88 13 21 8 39
15 40 15 2 0 6 -26 10 -58 3 -32 10 -63 13 -69 17 -25 230 -35 284 -12 15 6
28 18 28 26 0 20 -36 87 -55 103 -28 23 -38 50 -24 66 9 11 9 49 0 167 -20
273 -16 350 26 504 26 94 43 138 55 144 22 12 240 -6 269 -22 24 -13 36 -36
158 -320 100 -233 110 -262 92 -273 -5 -3 -12 -18 -16 -33 -3 -14 -20 -56 -37
-92 -60 -129 -40 -165 94 -165 10 0 21 -11 27 -27 20 -58 76 -55 112 6 12 20
29 39 38 44 9 5 59 12 111 16 102 7 200 30 212 48 4 7 8 27 8 45 0 22 6 35 18
39 9 4 22 14 29 22 10 14 14 13 38 -9 15 -14 36 -44 47 -68 40 -85 160 -109
229 -46 24 21 8 84 -41 159 -21 33 -50 84 -64 113 l-25 54 20 86 c20 81 20 89
5 164 -9 43 -16 108 -16 143 l0 65 45 0 c56 0 60 -7 86 -151 11 -62 35 -178
54 -258 46 -194 50 -239 31 -336 -20 -102 -21 -169 -1 -185 36 -30 99 23 125
105 18 57 24 62 86 68 31 3 58 8 61 11 12 12 -10 56 -56 114 -27 33 -52 74
-55 89 -9 38 53 454 79 543 3 9 31 23 68 33 69 18 153 53 161 66 6 9 -15 322
-39 586 -14 149 -43 314 -75 424 -12 42 -2 57 58 82 60 26 70 24 74 -13 2 -24
12 -38 38 -55 61 -38 67 -48 79 -119 33 -212 63 -387 68 -400 3 -8 19 -14 39
-14 23 0 34 -5 34 -14 0 -25 -57 -234 -100 -366 -26 -80 -49 -184 -66 -290
-24 -156 -87 -500 -100 -547 -4 -16 -1 -23 15 -28 38 -12 21 -37 -65 -95 -64
-43 -105 -81 -98 -92 17 -27 374 40 396 74 4 7 8 25 8 40 0 36 10 58 25 58 8
0 17 5 21 11 3 6 24 99 46 207 22 109 44 216 49 239 11 56 84 248 107 285 l19
30 26 -33 c32 -44 158 -284 195 -374 16 -39 32 -93 36 -120 6 -37 16 -57 43
-84 29 -29 33 -38 24 -53 -6 -10 -11 -33 -11 -51 0 -29 -7 -38 -57 -73 -31
-21 -58 -44 -60 -50 -10 -31 109 -19 267 27 58 16 113 32 122 35 32 9 8 178
-57 404 -37 128 -66 196 -215 509 -110 232 -108 222 -70 324 18 47 29 61 66
83 24 14 49 34 54 44 9 17 24 184 35 395 l7 120 71 73 72 73 -1 122 c-1 193
-62 451 -130 549 -31 44 -111 102 -225 161 -152 79 -151 78 -110 151 33 58 48
120 33 139 -5 6 -13 32 -17 57 -11 76 -25 108 -60 139 -50 44 -101 57 -171 43
-127 -26 -168 -86 -169 -247 0 -126 9 -167 45 -209 34 -38 32 -41 -53 -90 -64
-36 -82 -58 -124 -146 -20 -41 -37 -77 -39 -79 -2 -2 -21 15 -41 38 -33 37
-48 45 -117 62 -132 34 -160 56 -154 126 2 30 11 42 48 68 26 18 55 50 70 77
23 45 24 49 11 110 -31 155 -110 248 -210 248 -36 0 -40 3 -49 33 -6 17 -16
69 -22 115 -11 73 -10 90 6 153 17 67 17 72 1 84 -16 11 -17 50 -17 489 l0
476 -725 0 -724 0 -4 -492 c-6 -724 -3 -686 -55 -791 -23 -48 -49 -87 -56 -87
-23 0 -106 -88 -127 -134 -20 -45 -38 -152 -39 -222 0 -50 22 -80 70 -97 42
-15 150 -76 150 -85 0 -3 -14 -20 -30 -37 -22 -23 -33 -46 -40 -87 -7 -49 -53
-158 -65 -158 -7 0 -82 240 -90 287 -4 24 -14 52 -23 62 -10 11 -87 45 -176
76 -137 48 -191 69 -204 80 -1 1 9 22 23 46 27 48 33 109 14 156 -6 15 -13 51
-14 78 -3 54 -21 101 -59 153 -25 33 -53 136 -63 228 -4 39 -1 59 16 92 11 23
21 59 21 80 0 48 -33 96 -61 89 -18 -5 -19 20 -19 822 l0 826 22 10 c53 24 49
83 -7 109 -96 46 -200 -59 -107 -108 33 -18 23 -22 -73 -30 -86 -7 -196 -42
-253 -80 -68 -46 -146 -68 -262 -73 -127 -6 -210 6 -366 53 -237 71 -381 69
-614 -9 -122 -41 -128 -42 -247 -40 -153 3 -263 23 -428 80 -169 58 -267 65
-495 33 -85 -11 -216 -27 -290 -36 -208 -23 -303 -2 -403 90 -66 61 -119 80
-206 74 -50 -4 -88 -14 -138 -38 -87 -41 -145 -64 -119 -47 61 39 69 65 31
102 -19 20 -34 25 -75 25 -86 0 -121 -64 -60 -112 l30 -24 -4 -844 c-2 -465
-5 -861 -5 -880 -1 -19 1 -98 5 -175 5 -128 4 -145 -16 -195 -12 -30 -30 -62
-39 -72 -12 -10 -21 -39 -25 -78 -4 -34 -11 -73 -16 -86 l-10 -25 -43 46 c-24
25 -51 45 -59 45 -20 0 -30 58 -22 126 6 49 5 53 -32 93 -20 23 -50 49 -65 56
-42 22 -149 21 -195 -1 -60 -30 -76 -60 -90 -176 -6 -56 -11 -107 -9 -112 2
-6 6 -23 9 -38 3 -14 18 -40 32 -57 18 -22 24 -40 22 -63 -4 -39 -48 -71 -239
-174 l-120 -65 -50 28 c-56 30 -83 70 -73 108 6 24 66 85 83 85 4 0 16 18 26
39 37 83 0 248 -72 324 -25 25 -32 27 -113 27 -77 0 -91 -3 -131 -28 -106 -69
-163 -165 -141 -241 7 -21 12 -54 12 -74 0 -29 6 -40 33 -58 17 -12 51 -40 75
-63 38 -36 42 -45 42 -88 0 -54 11 -44 -140 -131 -89 -52 -95 -70 -94 -277 1
-96 6 -204 12 -240 9 -64 9 -66 -29 -142 -44 -88 -45 -93 -22 -157 16 -46 15
-50 -21 -236 -20 -105 -47 -257 -60 -340 -19 -122 -25 -143 -30 -115 -34 170
-40 380 -11 380 17 0 18 4 45 160 37 220 37 298 -3 535 -19 116 -38 233 -42
260 -3 28 -17 80 -31 116 -29 78 -20 73 -214 124 -168 44 -175 47 -195 84 -12
25 -13 39 -5 76 6 26 17 56 25 69 26 39 13 219 -20 275 -43 74 -189 105 -270
59 -51 -29 -85 -94 -85 -161 0 -26 -5 -57 -10 -67 -14 -26 3 -97 29 -121 12
-11 21 -26 21 -34 0 -8 7 -30 16 -49 26 -54 14 -77 -61 -114 -64 -31 -85 -34
-85 -9 0 7 -9 18 -20 25 -11 7 -20 19 -20 27 0 9 -10 29 -21 44 l-21 29 31 29
c107 96 83 361 -36 392 -75 20 -123 23 -166 12 -23 -6 -57 -13 -75 -15 -19 -2
-41 -11 -50 -20 -14 -14 -14 -21 -3 -52 12 -33 11 -39 -10 -67 -30 -42 -40
-151 -22 -269 9 -67 9 -68 -13 -68 -13 0 -27 7 -32 16 -6 12 -17 15 -32 11
-16 -4 -32 1 -52 19 -16 13 -34 24 -39 24 -5 0 -9 6 -9 14 0 8 -43 78 -95 155
-53 78 -107 167 -121 199 -14 31 -32 69 -40 84 -8 14 -14 37 -14 51 0 13 -7
43 -15 66 -8 23 -11 49 -8 57 5 13 2 15 -14 10 -13 -4 -23 -2 -26 7 -3 8 10
77 28 153 19 77 66 272 105 434 39 162 89 369 111 460 22 91 69 284 104 430
36 146 67 283 70 305 3 22 13 74 24 115 10 41 17 78 15 82 -7 11 -139 38 -314
64 -199 30 -529 43 -600 24 -25 -7 -58 -12 -75 -11 -16 1 -224 30 -461 64
l-432 63 42 -59z m5395 -1401 c11 -10 43 -26 72 -38 86 -33 216 -34 486 -4
127 14 256 26 287 26 77 0 194 -25 285 -62 239 -96 502 -125 654 -74 156 53
196 60 342 60 l140 0 136 -47 c167 -58 262 -77 386 -77 116 0 200 20 274 65
66 41 177 72 276 78 l73 4 -1 -397 -1 -398 -38 -6 c-47 -7 -99 -50 -134 -111
-37 -62 -37 -171 0 -276 14 -41 30 -80 36 -86 7 -9 3 -16 -18 -24 -114 -45
-155 -58 -195 -64 l-46 -7 -7 37 c-7 33 -4 41 25 71 29 30 31 37 26 77 -10 73
-47 158 -89 203 -32 35 -37 45 -29 65 10 28 -2 67 -24 75 -22 9 -28 -1 -15
-25 13 -24 3 -27 -24 -6 -54 41 -149 -6 -214 -106 -49 -76 -46 -72 -99 -109
-66 -46 -86 -96 -86 -208 1 -67 -2 -92 -10 -89 -7 2 -45 14 -84 26 -64 20 -78
29 -118 75 -52 61 -54 79 -24 169 19 56 20 68 9 140 -20 127 -80 177 -210 177
-81 0 -115 -14 -157 -63 -15 -18 -44 -44 -63 -57 -106 -71 -151 -153 -131
-240 5 -23 7 -48 4 -55 -8 -23 16 -54 72 -89 56 -36 85 -77 85 -119 0 -20 -14
-33 -69 -67 -76 -46 -85 -54 -96 -88 -4 -13 -20 -45 -36 -70 -42 -68 -53 -144
-38 -256 6 -50 12 -127 12 -172 1 -83 0 -85 -63 -203 l-24 -44 28 -52 28 -52
-35 -164 c-20 -90 -45 -215 -56 -278 -12 -63 -23 -116 -25 -118 -2 -2 -12 48
-21 112 -22 143 -17 304 13 420 12 44 37 159 58 255 30 146 37 196 38 305 1
111 -2 140 -22 195 -23 68 -77 143 -166 232 l-49 49 7 101 7 100 -41 84 c-63
129 -137 168 -237 124 -69 -29 -99 -64 -117 -135 -21 -78 -20 -130 3 -204 l19
-60 -48 24 c-91 46 -128 118 -91 178 22 36 24 71 15 223 l-5 91 -42 42 c-38
36 -50 42 -103 47 -79 8 -151 -15 -203 -65 -33 -30 -39 -44 -45 -91 -9 -86 15
-222 48 -260 41 -50 37 -107 -15 -175 -52 -70 -99 -88 -134 -55 -19 18 -45 25
-117 34 l-92 12 44 13 c111 33 184 120 183 220 -1 106 -93 249 -184 285 -39
16 -43 16 -81 -3 l-40 -19 6 24 c5 17 2 24 -8 24 -22 0 -39 -38 -32 -72 5 -25
-1 -37 -33 -75 -44 -49 -83 -150 -85 -215 -1 -32 4 -44 27 -60 21 -16 27 -28
27 -59 0 -65 -19 -64 -228 14 -108 40 -117 45 -183 113 l-69 72 1 143 c1 134
4 156 43 310 48 192 47 220 -9 257 l-35 22 0 252 0 251 251 -5 c214 -5 253 -8
268 -22z m5567 -773 c3 -21 16 -56 29 -78 19 -33 23 -61 28 -165 5 -120 4
-127 -19 -165 -20 -34 -24 -53 -24 -126 l0 -86 -74 -36 c-41 -21 -78 -37 -83
-37 -5 0 -26 18 -46 40 -19 22 -43 40 -51 40 -36 0 -46 40 -40 158 5 102 3
115 -15 138 -11 14 -27 47 -36 73 -25 77 -77 111 -167 111 -72 0 -124 -34
-160 -105 -18 -34 -20 -52 -15 -135 3 -55 12 -112 22 -135 23 -56 12 -150 -19
-167 -11 -6 -25 -17 -29 -24 -6 -11 -14 -11 -45 1 -52 20 -186 38 -230 31 -27
-5 -45 -1 -65 12 -27 18 -28 23 -30 103 -2 101 -34 176 -99 234 -40 37 -40 37
-29 79 7 22 28 75 46 116 18 41 41 94 51 118 l18 42 537 0 538 0 7 -37z
m-9507 -600 c27 -46 47 -83 45 -83 -11 0 -92 44 -121 67 -39 28 -41 43 -11 91
17 27 24 32 30 21 5 -8 30 -51 57 -96z m3301 -38 c11 -13 10 -14 -4 -9 -9 3
-16 10 -16 15 0 13 6 11 20 -6z m6375 -202 c-3 -16 -16 -39 -28 -52 -24 -26
-164 -121 -178 -121 -5 0 -9 18 -9 40 0 25 5 40 13 40 26 0 133 59 161 89 37
38 50 40 41 4z m-6096 -114 c33 -29 41 -43 50 -93 17 -90 13 -96 -20 -36 -16
30 -42 71 -58 90 -18 23 -30 52 -34 85 -5 49 -5 49 8 19 8 -18 32 -47 54 -65z
m-4229 -353 c-12 -64 -26 -119 -31 -122 -17 -10 -33 44 -21 69 6 12 14 33 18
47 14 51 46 131 51 127 2 -3 -5 -57 -17 -121z m10091 -151 c-1 -83 -5 -107
-31 -171 -36 -89 -37 -115 -9 -161 21 -34 21 -35 4 -128 -17 -94 -35 -126 -35
-62 0 17 -8 50 -18 72 -12 27 -19 70 -21 133 -2 86 2 105 45 250 63 213 66
216 65 67z m629 -37 c0 -43 -3 -49 -30 -63 -24 -12 -30 -13 -30 -2 0 15 29
117 37 131 10 16 23 -20 23 -66z m-1474 -10 c-3 -13 -8 -66 -11 -118 -5 -79
-10 -102 -31 -134 -34 -51 -48 -36 -42 46 2 42 15 91 38 146 32 78 56 109 46
60z m-17 -535 c-4 -27 -9 -106 -10 -178 -2 -114 -3 -122 -9 -65 -12 100 -11
249 0 271 18 34 27 21 19 -28z m-1033 -390 c23 -92 60 -308 85 -488 6 -44 17
-98 25 -120 7 -22 19 -87 24 -145 6 -58 18 -117 26 -132 9 -17 14 -56 14 -110
0 -72 3 -88 20 -103 14 -13 18 -25 14 -39 -4 -12 -8 -32 -10 -45 -2 -23 -133
-166 -142 -156 -3 3 0 10 5 17 17 21 23 325 8 368 -7 19 -10 49 -8 66 6 42
-24 269 -48 363 -10 41 -19 100 -19 130 0 31 -7 133 -15 226 -16 180 -19 282
-9 272 3 -3 17 -50 30 -104z m-4651 -70 c-16 -68 -134 -493 -141 -508 -2 -5
-2 6 1 25 6 37 134 519 142 533 11 18 10 3 -2 -50z m520 -972 c16 -59 30 -81
52 -81 11 0 14 -7 9 -22 -3 -13 -6 -35 -6 -49 0 -14 -6 -34 -14 -44 -14 -19
-16 -18 -68 17 -70 49 -136 117 -122 126 7 4 14 65 18 151 4 79 10 150 13 158
7 17 99 -181 118 -256z m3604 -75 c20 -21 20 -25 6 -52 -8 -16 -15 -37 -15
-47 0 -28 -19 -57 -36 -57 -9 0 -22 17 -31 40 -12 29 -21 39 -31 35 -12 -4
-14 3 -8 41 3 26 10 52 15 58 5 6 12 36 16 66 l7 54 28 -57 c15 -32 37 -68 49
-81z m1886 -101 c-33 -28 -51 -31 -58 -12 -9 25 6 37 47 37 l41 -1 -30 -24z"/>
</g>
</svg>
