<?xml version="1.0" standalone="no"?>
<!DOCTYPE svg PUBLIC "-//W3C//DTD SVG 20010904//EN"
 "http://www.w3.org/TR/2001/REC-SVG-20010904/DTD/svg10.dtd">
<svg version="1.0" xmlns="http://www.w3.org/2000/svg"
 width="794.000000pt" height="1280.000000pt" viewBox="0 0 794.000000 1280.000000"
 preserveAspectRatio="xMidYMid meet">
<metadata>
Created by potrace 1.15, written by Peter Selinger 2001-2017
</metadata>
<g transform="translate(0.000000,1280.000000) scale(0.100000,-0.100000)"
fill="#000000" stroke="none">
<path d="M1479 12057 c-277 -408 -715 -1055 -974 -1437 -259 -382 -479 -706
-488 -720 l-16 -26 153 -103 c85 -58 158 -103 162 -101 5 2 34 40 65 85 47 67
60 79 80 77 13 -2 206 -37 429 -78 223 -41 621 -115 885 -164 264 -49 629
-116 810 -150 182 -34 356 -66 388 -72 l57 -10 0 -50 c0 -46 4 -54 43 -93 23
-23 51 -46 61 -52 17 -9 2 -37 -174 -309 -107 -165 -217 -336 -246 -380 l-53
-82 117 -82 c64 -46 119 -85 121 -86 2 -2 -24 -35 -58 -73 l-62 -69 177 -121
c96 -67 179 -121 184 -121 4 0 20 34 35 75 16 42 31 77 34 79 3 2 56 -31 116
-74 l110 -78 50 56 c28 31 91 103 142 159 l91 102 156 -392 c85 -216 261 -660
390 -987 l235 -595 10 -145 c11 -155 112 -1556 161 -2235 16 -225 32 -446 35
-490 l6 -80 -496 -620 -495 -620 0 -465 0 -466 -295 -143 -295 -144 0 -262 0
-263 348 -6 c191 -3 402 -9 469 -12 l121 -6 6 74 c3 40 17 419 31 843 15 423
30 774 34 780 303 386 774 981 779 983 4 1 20 -96 35 -215 15 -120 47 -375 72
-568 24 -192 74 -584 110 -870 36 -286 72 -569 80 -630 8 -60 15 -117 15 -126
0 -12 -41 -32 -155 -74 l-155 -58 0 -184 0 -183 465 0 c256 0 465 2 465 4 0 3
-29 184 -65 403 -36 219 -88 533 -115 698 -27 165 -92 559 -144 875 -52 316
-109 663 -126 770 l-31 195 125 620 c69 341 193 958 276 1370 82 413 153 757
158 766 5 13 169 -177 667 -773 363 -434 660 -793 660 -798 0 -5 -281 -259
-625 -565 -344 -306 -642 -573 -663 -594 l-37 -36 230 -574 c126 -315 231
-575 233 -577 4 -4 856 222 863 229 2 2 -140 249 -316 550 -176 300 -322 552
-325 559 -4 9 212 187 646 534 359 285 659 524 666 529 11 8 -196 261 -933
1140 -520 622 -951 1135 -957 1142 -7 7 -136 30 -287 51 l-275 40 -353 124
-353 124 -448 925 c-246 508 -447 926 -445 927 1 2 33 -17 69 -42 78 -54 114
-61 177 -35 40 16 628 885 635 938 6 44 -16 98 -50 122 -159 113 -908 615
-934 626 -38 15 -83 10 -119 -14 -22 -14 -30 -2 -335 449 -173 255 -505 747
-740 1093 l-427 630 49 91 c27 50 49 94 49 97 0 4 -60 47 -134 96 l-134 90
-503 -742z"/>
<path d="M5865 10254 c-267 -40 -499 -119 -699 -239 -104 -62 -192 -128 -189
-141 1 -5 247 -420 548 -923 300 -503 544 -915 543 -917 -2 -1 -129 24 -283
57 -237 51 -368 71 -855 134 -316 41 -585 75 -597 75 -19 0 -22 -4 -18 -27 34
-208 86 -384 158 -536 253 -533 755 -903 1343 -992 128 -19 380 -19 508 0 482
73 905 331 1189 726 79 111 194 337 236 464 304 934 -193 1928 -1121 2239
-183 61 -296 78 -528 81 -113 2 -218 1 -235 -1z"/>
</g>
</svg>
